<svg xmlns="http://www.w3.org/2000/svg" viewBox="0 0 1200 80" preserveAspectRatio="none">
  <path fill="#000" d="M0 0H1200V34c-10 4-22 6-34 6-9 0-15-3-24-2-8 1-14 6-23 6-12 0-18-7-30-7-10 0-16 5-25 5-6 0-10-2-16-2-8 1-11 8-20 9-13 1-19-10-32-9-8 1-13 7-21 8-7 0-12-3-18-2-9 2-12 12-22 13-12 1-17-8-28-7-10 1-14 9-23 10-7 1-11-2-17-1-8 1-12 8-21 8-10 0-15-6-24-6-10 1-13 9-23 10-12 1-18-8-30-8-9 1-13 8-22 9-7 0-11-3-17-2-8 2-11 13-21 14-13 1-18-11-31-10-9 1-13 9-22 10-7 0-12-4-19-3-8 2-11 11-20 12-11 1-17-7-27-7-9 1-13 8-22 9-8 1-13-4-20-3-8 1-12 10-21 11-12 1-17-8-28-8-10 0-15 7-24 8-7 0-11-3-18-2-10 1-14 12-25 12-12 0-18-10-30-9-9 1-14 8-23 9-7 0-12-4-19-3-8 2-11 10-20 11-10 1-16-6-26-5-9 1-13 8-22 9-8 0-13-4-20-3-9 2-12 12-22 13-12 1-18-9-30-8-9 1-13 8-22 9-7 0-12-4-19-3-8 2-11 11-20 12-12 1-17-8-29-7-10 1-15 8-25 9-8 0-13-5-21-4-9 1-12 10-22 10-11 0-17-8-28-8-9 1-14 7-23 8-8 0-13-4-21-3-9 1-13 10-23 10-12 0-18-9-30-9-9 1-14 7-23 8-7 0-12-3-19-2-9 2-12 12-23 12-12 0-18-10-30-9-9 1-13 8-22 9-8 0-14-4-21-3-8 2-12 9-21 10-11 1-17-7-28-6-10 1-16 8-26 8-8 0-14-5-22-4-8 1-12 8-21 8-13 1-20-9-33-8-10 1-15 8-25 8-7 0-12-4-19-3-9 2-12 11-22 11-11 0-17-8-28-7-10 1-16 8-26 8-8 0-13-4-21-3-10 2-14 13-25 13-12 0-18-10-30-9-10 1-16 8-26 8-8 0-13-5-20-4-9 1-13 9-22 9-13 0-20-10-33-9-10 1-16 7-26 7-9 0-16-4-25-5-11-1-20 3-29 8V0Z"/>
</svg>