<svg xmlns="http://www.w3.org/2000/svg" viewBox="0 0 360 90" preserveAspectRatio="none">
  <path fill="#000" d="M0 0H360V54
    C351 58 344 52 336 55
    C330 57 329 66 321 67
    C312 68 308 57 300 59
    C293 61 292 71 284 72
    C277 73 273 65 267 66
    C259 68 258 80 249 81
    C239 82 237 69 228 70
    C221 71 220 80 212 81
    C205 82 201 73 194 74
    C187 75 185 87 176 88
    C166 89 164 76 155 77
    C147 78 146 87 138 88
    C130 89 127 78 119 79
    C111 80 109 90 100 90
    C91 90 88 78 80 79
    C72 80 70 88 62 88
    C55 88 52 80 45 81
    C36 82 33 90 24 89
    C15 88 10 80 0 84V0Z"/>
</svg>