<svg xmlns="http://www.w3.org/2000/svg" viewBox="0 0 500 500" width="500" height="500" role="img" aria-label="Earrings category placeholder">
	<rect width="500" height="500" fill="#ece0c8"/>
	<circle cx="250" cy="250" r="248" fill="#e2d3ae"/>
	<g stroke="#a2582c" stroke-width="10" fill="none">
		<path d="M205,150 a12,12 0 1,1 0.1,0"/>
		<line x1="205" y1="162" x2="205" y2="220"/>
		<path d="M205,220 C170,250 170,290 205,300 C240,290 240,250 205,220 Z"/>

		<path d="M295,150 a12,12 0 1,1 0.1,0"/>
		<line x1="295" y1="162" x2="295" y2="220"/>
		<path d="M295,220 C260,250 260,290 295,300 C330,290 330,250 295,220 Z"/>
	</g>
	<circle cx="205" cy="270" r="9" fill="#7a3f8f"/>
	<circle cx="295" cy="270" r="9" fill="#7a3f8f"/>
</svg>
